<svg width="18" height="10" viewBox="0 0 18 10" fill="none" xmlns="http://www.w3.org/2000/svg">
<path d="M9 3.03125C7.90312 3.03125 7.03125 3.93125 7.03125 5C7.03125 6.06875 7.93125 6.96875 9 6.96875C10.0687 6.96875 10.9687 6.06875 10.9687 5C10.9687 3.93125 10.0969 3.03125 9 3.03125ZM9 5.98438C8.46562 5.98438 8.01562 5.53437 8.01562 5C8.01562 4.46563 8.46562 4.01562 9 4.01562C9.53437 4.01562 9.98437 4.46563 9.98437 5C9.98437 5.53437 9.53437 5.98438 9 5.98438Z" fill="black"/>
<path d="M17.5496 4.6624C15.6934 1.7374 12.4871 -0.00634766 8.99961 -0.00634766C5.51211 -0.00634766 2.30586 1.7374 0.449609 4.6624C0.337109 4.85928 0.337109 5.1124 0.449609 5.30928C2.30586 8.23428 5.51211 9.97803 8.99961 9.97803C12.4871 9.97803 15.6934 8.23428 17.5496 5.30928C17.6902 5.1124 17.6902 4.85928 17.5496 4.6624ZM8.99961 8.99365C5.93398 8.99365 3.09336 7.50303 1.40586 4.97178C3.09336 2.46865 5.93398 0.978028 8.99961 0.978028C12.0652 0.978028 14.9059 2.46865 16.5934 4.97178C14.9059 7.50303 12.0652 8.99365 8.99961 8.99365Z" fill="black"/>
</svg>
