<svg width="205" height="16" viewBox="0 0 205 16" fill="none" xmlns="http://www.w3.org/2000/svg">
<path d="M2.75 6.54545C2.75 5.96307 2.89205 5.43217 3.17614 4.95277C3.46023 4.47337 3.84197 4.09162 4.32138 3.80753C4.80078 3.52344 5.33168 3.38139 5.91406 3.38139C6.41832 3.38139 6.88352 3.4897 7.30966 3.70632C7.73935 3.92294 8.09446 4.21946 8.375 4.59588C8.65554 4.96875 8.82955 5.39134 8.89702 5.86364H7.60795C7.53693 5.49787 7.33984 5.19957 7.01669 4.96875C6.69354 4.73438 6.32599 4.61719 5.91406 4.61719C5.55895 4.61719 5.2358 4.70419 4.9446 4.8782C4.65341 5.0522 4.42081 5.2848 4.2468 5.57599C4.0728 5.86719 3.9858 6.19034 3.9858 6.54545C3.9858 6.90057 4.0728 7.22372 4.2468 7.51491C4.42081 7.80611 4.65341 8.03871 4.9446 8.21271C5.2358 8.38672 5.55895 8.47372 5.91406 8.47372C6.32599 8.47372 6.67401 8.35831 6.9581 8.12749C7.24574 7.89311 7.42685 7.59304 7.50142 7.22727H8.79048C8.72301 7.69957 8.55788 8.12393 8.2951 8.50035C8.03232 8.87322 7.69496 9.16797 7.28303 9.38459C6.87464 9.60121 6.41832 9.70952 5.91406 9.70952C5.33168 9.70952 4.80078 9.56747 4.32138 9.28338C3.84197 8.99929 3.46023 8.61754 3.17614 8.13814C2.89205 7.65874 2.75 7.12784 2.75 6.54545ZM5.8608 12.1705C5.08665 12.1705 4.35866 12.0249 3.67685 11.7337C2.99858 11.4425 2.40021 11.0394 1.88175 10.5245C1.36683 10.006 0.962003 9.40767 0.667259 8.7294C0.376065 8.05114 0.232244 7.32315 0.235796 6.54545C0.239347 5.76776 0.386719 5.03977 0.677912 4.36151C0.972656 3.68324 1.37749 3.08665 1.8924 2.57173C2.40732 2.05327 3.00391 1.64844 3.68217 1.35724C4.36044 1.06605 5.08665 0.920454 5.8608 0.920454C6.63849 0.920454 7.36648 1.06605 8.04474 1.35724C8.72656 1.64844 9.32315 2.05327 9.83452 2.57173C10.3494 3.08665 10.7525 3.68324 11.0437 4.36151C11.3349 5.03977 11.4822 5.76776 11.4858 6.54545C11.4893 7.32315 11.3455 8.05114 11.0543 8.7294C10.7631 9.40767 10.3601 10.006 9.84517 10.5245C9.33026 11.0394 8.73189 11.4425 8.05007 11.7337C7.36825 12.0249 6.63849 12.1705 5.8608 12.1705ZM5.8608 10.9347C6.46804 10.9347 7.038 10.821 7.57067 10.5938C8.10334 10.3665 8.57031 10.0522 8.97159 9.65092C9.37287 9.24964 9.68714 8.78445 9.91442 8.25533C10.1417 7.72266 10.2536 7.15447 10.25 6.55078C10.2464 5.94354 10.131 5.37358 9.90376 4.84091C9.67649 4.30824 9.36222 3.84126 8.96094 3.43999C8.55966 3.03871 8.09446 2.72443 7.56534 2.49716C7.03622 2.26989 6.46804 2.15625 5.8608 2.15625C5.2571 2.15625 4.6907 2.26989 4.16158 2.49716C3.63246 2.72443 3.16726 3.04048 2.76598 3.44531C2.3647 3.84659 2.04865 4.31357 1.81783 4.84624C1.59055 5.37536 1.47514 5.94354 1.47159 6.55078C1.46804 7.15092 1.5799 7.71733 1.80717 8.25C2.03445 8.77912 2.34872 9.24432 2.75 9.6456C3.15483 10.0469 3.6218 10.3629 4.15092 10.5938C4.68359 10.821 5.25355 10.9347 5.8608 10.9347ZM27.0438 4.5H25.7227C25.6446 4.12003 25.5079 3.78622 25.3126 3.49858C25.1208 3.21094 24.8865 2.96946 24.6095 2.77415C24.336 2.57528 24.0324 2.42614 23.6986 2.3267C23.3648 2.22727 23.0168 2.17756 22.6546 2.17756C21.9941 2.17756 21.3957 2.34446 20.8595 2.67827C20.3268 3.01207 19.9024 3.50391 19.5864 4.15376C19.2739 4.80362 19.1176 5.60085 19.1176 6.54545C19.1176 7.49006 19.2739 8.28729 19.5864 8.93714C19.9024 9.587 20.3268 10.0788 20.8595 10.4126C21.3957 10.7464 21.9941 10.9134 22.6546 10.9134C23.0168 10.9134 23.3648 10.8636 23.6986 10.7642C24.0324 10.6648 24.336 10.5174 24.6095 10.3221C24.8865 10.1232 25.1208 9.87997 25.3126 9.59233C25.5079 9.30114 25.6446 8.96733 25.7227 8.59091H27.0438C26.9443 9.14844 26.7632 9.64737 26.5004 10.0877C26.2377 10.5281 25.911 10.9027 25.5203 11.2116C25.1297 11.517 24.6911 11.7496 24.2046 11.9094C23.7217 12.0692 23.205 12.1491 22.6546 12.1491C21.7242 12.1491 20.8968 11.9219 20.1723 11.4673C19.4479 11.0128 18.8779 10.3665 18.4624 9.52841C18.047 8.69034 17.8392 7.69602 17.8392 6.54545C17.8392 5.39489 18.047 4.40057 18.4624 3.5625C18.8779 2.72443 19.4479 2.07812 20.1723 1.62358C20.8968 1.16903 21.7242 0.941761 22.6546 0.941761C23.205 0.941761 23.7217 1.02166 24.2046 1.18146C24.6911 1.34126 25.1297 1.57564 25.5203 1.88459C25.911 2.18999 26.2377 2.56285 26.5004 3.0032C26.7632 3.43999 26.9443 3.93892 27.0438 4.5ZM32.3319 12.1705C31.5932 12.1705 30.9451 11.9947 30.3876 11.6431C29.8336 11.2915 29.4004 10.7997 29.0879 10.1676C28.7789 9.53551 28.6245 8.79687 28.6245 7.9517C28.6245 7.09943 28.7789 6.35547 29.0879 5.71982C29.4004 5.08416 29.8336 4.59055 30.3876 4.23899C30.9451 3.88743 31.5932 3.71165 32.3319 3.71165C33.0705 3.71165 33.7168 3.88743 34.2708 4.23899C34.8283 4.59055 35.2615 5.08416 35.5705 5.71982C35.883 6.35547 36.0392 7.09943 36.0392 7.9517C36.0392 8.79687 35.883 9.53551 35.5705 10.1676C35.2615 10.7997 34.8283 11.2915 34.2708 11.6431C33.7168 11.9947 33.0705 12.1705 32.3319 12.1705ZM32.3319 11.0412C32.8929 11.0412 33.3546 10.8974 33.7168 10.6097C34.079 10.3221 34.3471 9.94389 34.5211 9.47514C34.6951 9.00639 34.7821 8.49858 34.7821 7.9517C34.7821 7.40483 34.6951 6.89524 34.5211 6.42294C34.3471 5.95064 34.079 5.56889 33.7168 5.2777C33.3546 4.98651 32.8929 4.84091 32.3319 4.84091C31.7708 4.84091 31.3091 4.98651 30.9469 5.2777C30.5847 5.56889 30.3166 5.95064 30.1426 6.42294C29.9686 6.89524 29.8816 7.40483 29.8816 7.9517C29.8816 8.49858 29.9686 9.00639 30.1426 9.47514C30.3166 9.94389 30.5847 10.3221 30.9469 10.6097C31.3091 10.8974 31.7708 11.0412 32.3319 11.0412ZM37.9582 15.0682V3.81818H39.1727V5.1179H39.3218C39.4142 4.97585 39.542 4.79474 39.7053 4.57457C39.8722 4.35085 40.1102 4.15199 40.4191 3.97798C40.7316 3.80043 41.1542 3.71165 41.6869 3.71165C42.3758 3.71165 42.983 3.88388 43.5086 4.22834C44.0342 4.5728 44.4443 5.06108 44.7391 5.69318C45.0338 6.32528 45.1812 7.07102 45.1812 7.9304C45.1812 8.79688 45.0338 9.54794 44.7391 10.1836C44.4443 10.8157 44.036 11.3058 43.5139 11.6538C42.9919 11.9982 42.39 12.1705 41.7082 12.1705C41.1826 12.1705 40.7618 12.0835 40.4458 11.9094C40.1297 11.7319 39.8865 11.5312 39.716 11.3075C39.5455 11.0803 39.4142 10.892 39.3218 10.7429H39.2153V15.0682H37.9582ZM39.194 7.90909C39.194 8.52699 39.2845 9.07209 39.4656 9.54439C39.6468 10.0131 39.9113 10.3807 40.2593 10.647C40.6073 10.9098 41.0335 11.0412 41.5377 11.0412C42.0633 11.0412 42.5019 10.9027 42.8534 10.6257C43.2085 10.3452 43.4749 9.96875 43.6524 9.49645C43.8335 9.0206 43.9241 8.49148 43.9241 7.90909C43.9241 7.33381 43.8353 6.81534 43.6578 6.35369C43.4838 5.88849 43.2192 5.52095 42.8641 5.25107C42.5125 4.97763 42.0704 4.84091 41.5377 4.84091C41.0264 4.84091 40.5967 4.97053 40.2487 5.22976C39.9007 5.48544 39.6379 5.84411 39.4603 6.30575C39.2828 6.76385 39.194 7.2983 39.194 7.90909ZM47.6155 15.0682C47.4024 15.0682 47.2124 15.0504 47.0455 15.0149C46.8786 14.983 46.7632 14.951 46.6993 14.919L47.0189 13.8111C47.3243 13.8892 47.5942 13.9176 47.8286 13.8963C48.0629 13.875 48.2707 13.7702 48.4518 13.582C48.6365 13.3974 48.8051 13.0973 48.9578 12.6818L49.1922 12.0426L46.1666 3.81818H47.5303L49.7888 10.3381H49.874L52.1325 3.81818H53.4962L50.0232 13.1932C49.8669 13.6158 49.6734 13.9656 49.4426 14.2425C49.2117 14.5231 48.9436 14.7308 48.6382 14.8658C48.3364 15.0007 47.9955 15.0682 47.6155 15.0682ZM55.1555 12V3.81818H56.3699V5.05398H56.4552C56.6043 4.64915 56.8742 4.32067 57.2648 4.06854C57.6555 3.81641 58.0958 3.69034 58.5858 3.69034C58.6782 3.69034 58.7936 3.69212 58.9321 3.69567C59.0706 3.69922 59.1753 3.70455 59.2464 3.71165V4.99006C59.2037 4.9794 59.1061 4.96342 58.9534 4.94212C58.8042 4.91726 58.6462 4.90483 58.4793 4.90483C58.0816 4.90483 57.7265 4.98828 57.414 5.15518C57.105 5.31854 56.86 5.54581 56.6789 5.837C56.5013 6.12464 56.4126 6.45312 56.4126 6.82244V12H55.1555ZM60.7365 12V3.81818H61.9936V12H60.7365ZM61.3757 2.45455C61.1307 2.45455 60.9194 2.37109 60.7418 2.20419C60.5678 2.03729 60.4808 1.83665 60.4808 1.60227C60.4808 1.3679 60.5678 1.16726 60.7418 1.00035C60.9194 0.833452 61.1307 0.75 61.3757 0.75C61.6207 0.75 61.8303 0.833452 62.0043 1.00035C62.1818 1.16726 62.2706 1.3679 62.2706 1.60227C62.2706 1.83665 62.1818 2.03729 62.0043 2.20419C61.8303 2.37109 61.6207 2.45455 61.3757 2.45455ZM67.5986 15.2386C66.9914 15.2386 66.4694 15.1605 66.0326 15.0043C65.5958 14.8516 65.2318 14.6491 64.9406 14.397C64.653 14.1484 64.4239 13.8821 64.2535 13.598L65.2549 12.8949C65.3685 13.044 65.5123 13.2145 65.6863 13.4062C65.8604 13.6016 66.0983 13.7702 66.4001 13.9123C66.7055 14.0579 67.105 14.1307 67.5986 14.1307C68.2591 14.1307 68.8042 13.9709 69.2339 13.6513C69.6636 13.3317 69.8785 12.831 69.8785 12.1491V10.4872H69.7719C69.6796 10.6364 69.5482 10.821 69.3778 11.0412C69.2108 11.2578 68.9694 11.4513 68.6533 11.6218C68.3408 11.7887 67.9182 11.8722 67.3856 11.8722C66.7251 11.8722 66.132 11.7159 65.6064 11.4034C65.0844 11.0909 64.6707 10.6364 64.3653 10.0398C64.0635 9.44318 63.9126 8.71875 63.9126 7.86648C63.9126 7.02841 64.0599 6.29865 64.3547 5.6772C64.6494 5.0522 65.0596 4.56925 65.5851 4.22834C66.1107 3.88388 66.718 3.71165 67.4069 3.71165C67.9395 3.71165 68.3621 3.80043 68.6746 3.97798C68.9907 4.15199 69.2322 4.35085 69.3991 4.57457C69.5695 4.79474 69.7009 4.97585 69.7932 5.1179H69.9211V3.81818H71.1356V12.2344C71.1356 12.9375 70.9758 13.5092 70.6562 13.9496C70.3401 14.3935 69.914 14.7184 69.3778 14.9244C68.8451 15.1339 68.252 15.2386 67.5986 15.2386ZM67.556 10.7429C68.0603 10.7429 68.4864 10.6275 68.8344 10.3967C69.1824 10.1658 69.447 9.83381 69.6281 9.40057C69.8092 8.96733 69.8998 8.44886 69.8998 7.84517C69.8998 7.25568 69.811 6.73544 69.6334 6.28445C69.4559 5.83345 69.1931 5.48011 68.8451 5.22443C68.4971 4.96875 68.0674 4.84091 67.556 4.84091C67.0233 4.84091 66.5795 4.97585 66.2243 5.24574C65.8728 5.51562 65.6082 5.87784 65.4307 6.33239C65.2567 6.78693 65.1697 7.29119 65.1697 7.84517C65.1697 8.41335 65.2584 8.91584 65.436 9.35263C65.6171 9.78587 65.8834 10.1268 66.235 10.3754C66.5901 10.6204 67.0305 10.7429 67.556 10.7429ZM74.6938 7.07812V12H73.4367V1.09091H74.6938V5.09659H74.8003C74.9921 4.67401 75.2797 4.33842 75.6633 4.08984C76.0503 3.83771 76.5653 3.71165 77.208 3.71165C77.7655 3.71165 78.2538 3.82351 78.6729 4.04723C79.0919 4.2674 79.4168 4.60653 79.6476 5.06463C79.882 5.51918 79.9992 6.09801 79.9992 6.80114V12H78.7421V6.88636C78.7421 6.23651 78.5734 5.73402 78.2361 5.37891C77.9023 5.02024 77.4388 4.84091 76.8458 4.84091C76.4339 4.84091 76.0645 4.92791 75.7378 5.10192C75.4147 5.27592 75.159 5.52983 74.9708 5.86364C74.7861 6.19744 74.6938 6.60227 74.6938 7.07812ZM85.8572 3.81818V4.88352H81.6172V3.81818H85.8572ZM82.853 1.85795H84.1101V9.65625C84.1101 10.0114 84.1616 10.2777 84.2646 10.4553C84.3711 10.6293 84.506 10.7464 84.6694 10.8068C84.8363 10.8636 85.0121 10.892 85.1967 10.892C85.3352 10.892 85.4489 10.8849 85.5376 10.8707C85.6264 10.853 85.6974 10.8388 85.7507 10.8281L86.0064 11.9574C85.9212 11.9893 85.8022 12.0213 85.6495 12.0533C85.4968 12.0888 85.3033 12.1065 85.0689 12.1065C84.7138 12.1065 84.3658 12.0302 84.0249 11.8775C83.6875 11.7248 83.407 11.4922 83.1832 11.1797C82.9631 10.8672 82.853 10.473 82.853 9.99716V1.85795ZM91.9457 12V11.0412L95.5465 7.09943C95.9691 6.63778 96.3171 6.23651 96.5906 5.8956C96.864 5.55114 97.0664 5.22798 97.1978 4.92614C97.3327 4.62074 97.4002 4.30114 97.4002 3.96733C97.4002 3.58381 97.3079 3.25178 97.1232 2.97124C96.9421 2.6907 96.6935 2.47408 96.3775 2.32138C96.0614 2.16868 95.7063 2.09233 95.3121 2.09233C94.8931 2.09233 94.5273 2.17933 94.2148 2.35334C93.9059 2.52379 93.6662 2.76349 93.4957 3.07244C93.3288 3.38139 93.2454 3.74361 93.2454 4.15909H91.9883C91.9883 3.51989 92.1357 2.95881 92.4304 2.47585C92.7251 1.9929 93.1264 1.61648 93.6342 1.34659C94.1456 1.0767 94.7191 0.941761 95.3548 0.941761C95.994 0.941761 96.5604 1.0767 97.054 1.34659C97.5476 1.61648 97.9347 1.98047 98.2152 2.43857C98.4957 2.89666 98.636 3.40625 98.636 3.96733C98.636 4.36861 98.5632 4.76101 98.4176 5.14453C98.2756 5.5245 98.027 5.94886 97.6719 6.41761C97.3203 6.88281 96.832 7.45099 96.207 8.12216L93.7567 10.7429V10.8281H98.8278V12H91.9457ZM104.586 12.1491C103.783 12.1491 103.1 11.9308 102.535 11.494C101.971 11.0536 101.539 10.4162 101.241 9.58168C100.942 8.74361 100.793 7.73153 100.793 6.54545C100.793 5.36648 100.942 4.35973 101.241 3.52521C101.543 2.68714 101.976 2.04794 102.54 1.6076C103.109 1.16371 103.79 0.941761 104.586 0.941761C105.381 0.941761 106.061 1.16371 106.626 1.6076C107.194 2.04794 107.627 2.68714 107.926 3.52521C108.228 4.35973 108.379 5.36648 108.379 6.54545C108.379 7.73153 108.229 8.74361 107.931 9.58168C107.633 10.4162 107.201 11.0536 106.637 11.494C106.072 11.9308 105.388 12.1491 104.586 12.1491ZM104.586 10.9773C105.381 10.9773 105.999 10.5937 106.44 9.8267C106.88 9.05966 107.1 7.96591 107.1 6.54545C107.1 5.60085 106.999 4.79652 106.797 4.13246C106.598 3.46839 106.31 2.96236 105.934 2.61435C105.561 2.26634 105.112 2.09233 104.586 2.09233C103.798 2.09233 103.181 2.48118 102.738 3.25888C102.294 4.03303 102.072 5.12855 102.072 6.54545C102.072 7.49006 102.171 8.29261 102.37 8.95312C102.569 9.61364 102.855 10.1161 103.228 10.4606C103.604 10.805 104.057 10.9773 104.586 10.9773ZM110.403 12V11.0412L114.004 7.09943C114.426 6.63778 114.774 6.23651 115.048 5.8956C115.321 5.55114 115.523 5.22798 115.655 4.92614C115.79 4.62074 115.857 4.30114 115.857 3.96733C115.857 3.58381 115.765 3.25178 115.58 2.97124C115.399 2.6907 115.151 2.47408 114.835 2.32138C114.518 2.16868 114.163 2.09233 113.769 2.09233C113.35 2.09233 112.984 2.17933 112.672 2.35334C112.363 2.52379 112.123 2.76349 111.953 3.07244C111.786 3.38139 111.702 3.74361 111.702 4.15909H110.445C110.445 3.51989 110.593 2.95881 110.887 2.47585C111.182 1.9929 111.583 1.61648 112.091 1.34659C112.603 1.0767 113.176 0.941761 113.812 0.941761C114.451 0.941761 115.017 1.0767 115.511 1.34659C116.005 1.61648 116.392 1.98047 116.672 2.43857C116.953 2.89666 117.093 3.40625 117.093 3.96733C117.093 4.36861 117.02 4.76101 116.875 5.14453C116.733 5.5245 116.484 5.94886 116.129 6.41761C115.777 6.88281 115.289 7.45099 114.664 8.12216L112.214 10.7429V10.8281H117.285V12H110.403ZM123.171 12.1491C122.468 12.1491 121.841 12.0284 121.29 11.7869C120.744 11.5455 120.309 11.2099 119.985 10.7802C119.666 10.3469 119.492 9.84446 119.463 9.27273H120.806C120.834 9.62429 120.955 9.92791 121.168 10.1836C121.381 10.4357 121.66 10.631 122.004 10.7695C122.349 10.908 122.73 10.9773 123.15 10.9773C123.618 10.9773 124.034 10.8956 124.396 10.7322C124.758 10.5689 125.042 10.3416 125.248 10.0504C125.454 9.75923 125.557 9.42188 125.557 9.03835C125.557 8.63707 125.458 8.28374 125.259 7.97834C125.06 7.66939 124.769 7.42791 124.385 7.25391C124.002 7.0799 123.533 6.9929 122.979 6.9929H122.105V5.82102H122.979C123.412 5.82102 123.792 5.7429 124.119 5.58665C124.449 5.4304 124.707 5.21023 124.891 4.92614C125.08 4.64205 125.174 4.30824 125.174 3.92472C125.174 3.5554 125.092 3.23402 124.929 2.96058C124.765 2.68714 124.534 2.47408 124.236 2.32138C123.941 2.16868 123.593 2.09233 123.192 2.09233C122.816 2.09233 122.461 2.16158 122.127 2.30007C121.797 2.43501 121.527 2.6321 121.317 2.89134C121.108 3.14702 120.994 3.45597 120.976 3.81818H119.698C119.719 3.24645 119.891 2.74574 120.214 2.31605C120.538 1.88281 120.96 1.54545 121.482 1.30398C122.008 1.0625 122.585 0.941761 123.213 0.941761C123.888 0.941761 124.467 1.07848 124.95 1.35192C125.433 1.6218 125.804 1.97869 126.063 2.42259C126.322 2.86648 126.452 3.34588 126.452 3.8608C126.452 4.47514 126.29 4.99893 125.967 5.43217C125.648 5.86541 125.213 6.16548 124.662 6.33239V6.41761C125.351 6.53125 125.889 6.82422 126.276 7.29652C126.663 7.76527 126.857 8.34588 126.857 9.03835C126.857 9.63139 126.695 10.1641 126.372 10.6364C126.053 11.1051 125.616 11.4744 125.062 11.7443C124.508 12.0142 123.877 12.1491 123.171 12.1491ZM137.963 5.95952V7.13139H133.19V5.95952H137.963ZM143.968 2.26278V1.09091H152.149V2.26278H148.719V12H147.398V2.26278H143.968ZM155.312 12.1918C154.794 12.1918 154.323 12.0941 153.901 11.8988C153.478 11.6999 153.142 11.4141 152.894 11.0412C152.645 10.6648 152.521 10.2102 152.521 9.67756C152.521 9.20881 152.613 8.82884 152.798 8.53764C152.983 8.2429 153.229 8.01207 153.538 7.84517C153.847 7.67827 154.188 7.55398 154.561 7.4723C154.938 7.38707 155.316 7.3196 155.696 7.26989C156.193 7.20597 156.596 7.15803 156.905 7.12607C157.217 7.09055 157.445 7.03196 157.587 6.95028C157.732 6.86861 157.805 6.72656 157.805 6.52415V6.48153C157.805 5.95597 157.661 5.54759 157.374 5.25639C157.089 4.9652 156.658 4.8196 156.079 4.8196C155.479 4.8196 155.009 4.95099 154.668 5.21378C154.327 5.47656 154.087 5.7571 153.949 6.0554L152.755 5.62926C152.968 5.1321 153.252 4.74503 153.608 4.46804C153.966 4.1875 154.357 3.99219 154.779 3.8821C155.206 3.76847 155.625 3.71165 156.037 3.71165C156.299 3.71165 156.601 3.74361 156.942 3.80753C157.287 3.8679 157.619 3.99396 157.938 4.18572C158.261 4.37749 158.529 4.6669 158.743 5.05398C158.956 5.44105 159.062 5.95952 159.062 6.60938V12H157.805V10.892H157.741C157.656 11.0696 157.514 11.2596 157.315 11.462C157.116 11.6644 156.852 11.8366 156.521 11.9787C156.191 12.1207 155.788 12.1918 155.312 12.1918ZM155.504 11.0625C156.001 11.0625 156.42 10.9648 156.761 10.7695C157.105 10.5742 157.365 10.3221 157.539 10.0131C157.716 9.70419 157.805 9.37926 157.805 9.03835V7.88778C157.752 7.9517 157.635 8.0103 157.453 8.06357C157.276 8.11328 157.07 8.15767 156.836 8.19673C156.605 8.23224 156.379 8.2642 156.159 8.29261C155.942 8.31747 155.767 8.33878 155.632 8.35653C155.305 8.39915 155 8.46839 154.716 8.56428C154.435 8.65661 154.208 8.79687 154.034 8.98509C153.863 9.16974 153.778 9.42187 153.778 9.74148C153.778 10.1783 153.94 10.5085 154.263 10.7322C154.589 10.9524 155.003 11.0625 155.504 11.0625ZM161.357 12V3.81818H162.614V12H161.357ZM161.996 2.45455C161.751 2.45455 161.54 2.37109 161.362 2.20419C161.188 2.03729 161.101 1.83665 161.101 1.60227C161.101 1.3679 161.188 1.16726 161.362 1.00035C161.54 0.833452 161.751 0.75 161.996 0.75C162.241 0.75 162.45 0.833452 162.624 1.00035C162.802 1.16726 162.891 1.3679 162.891 1.60227C162.891 1.83665 162.802 2.03729 162.624 2.20419C162.45 2.37109 162.241 2.45455 161.996 2.45455ZM166.173 1.09091V12H164.916V1.09091H166.173ZM176.104 4.5C175.986 4.14134 175.832 3.81996 175.64 3.53587C175.452 3.24822 175.226 3.0032 174.964 2.80078C174.704 2.59837 174.41 2.44389 174.079 2.33736C173.749 2.23082 173.387 2.17756 172.993 2.17756C172.347 2.17756 171.759 2.34446 171.23 2.67827C170.701 3.01207 170.28 3.50391 169.967 4.15376C169.655 4.80362 169.498 5.60085 169.498 6.54545C169.498 7.49006 169.657 8.28729 169.973 8.93714C170.289 9.587 170.717 10.0788 171.256 10.4126C171.796 10.7464 172.403 10.9134 173.078 10.9134C173.703 10.9134 174.253 10.7802 174.729 10.5138C175.209 10.244 175.582 9.86399 175.848 9.37393C176.118 8.88033 176.253 8.29972 176.253 7.6321L176.658 7.71733H173.376V6.54545H177.531V7.71733C177.531 8.61577 177.339 9.39702 176.956 10.0611C176.576 10.7251 176.05 11.2401 175.379 11.6058C174.712 11.968 173.945 12.1491 173.078 12.1491C172.112 12.1491 171.263 11.9219 170.532 11.4673C169.804 11.0128 169.236 10.3665 168.827 9.52841C168.422 8.69034 168.22 7.69602 168.22 6.54545C168.22 5.68253 168.335 4.9066 168.566 4.21768C168.801 3.52521 169.131 2.93572 169.557 2.44922C169.983 1.96271 170.487 1.58984 171.07 1.33061C171.652 1.07138 172.293 0.941761 172.993 0.941761C173.568 0.941761 174.104 1.02876 174.601 1.20277C175.102 1.37322 175.548 1.61648 175.938 1.93253C176.333 2.24503 176.661 2.61967 176.924 3.05646C177.187 3.4897 177.368 3.97088 177.467 4.5H176.104ZM179.623 12V3.81818H180.838V5.05398H180.923C181.072 4.64915 181.342 4.32067 181.733 4.06854C182.123 3.81641 182.564 3.69034 183.054 3.69034C183.146 3.69034 183.261 3.69212 183.4 3.69567C183.538 3.69922 183.643 3.70455 183.714 3.71165V4.99006C183.672 4.9794 183.574 4.96342 183.421 4.94212C183.272 4.91726 183.114 4.90483 182.947 4.90483C182.549 4.90483 182.194 4.98828 181.882 5.15518C181.573 5.31854 181.328 5.54581 181.147 5.837C180.969 6.12464 180.88 6.45312 180.88 6.82244V12H179.623ZM185.204 12V3.81818H186.461V12H185.204ZM185.843 2.45455C185.598 2.45455 185.387 2.37109 185.21 2.20419C185.036 2.03729 184.949 1.83665 184.949 1.60227C184.949 1.3679 185.036 1.16726 185.21 1.00035C185.387 0.833452 185.598 0.75 185.843 0.75C186.089 0.75 186.298 0.833452 186.472 1.00035C186.65 1.16726 186.738 1.3679 186.738 1.60227C186.738 1.83665 186.65 2.03729 186.472 2.20419C186.298 2.37109 186.089 2.45455 185.843 2.45455ZM191.853 12.1705C191.172 12.1705 190.57 11.9982 190.048 11.6538C189.526 11.3058 189.117 10.8157 188.822 10.1836C188.528 9.54794 188.38 8.79688 188.38 7.9304C188.38 7.07102 188.528 6.32528 188.822 5.69318C189.117 5.06108 189.527 4.5728 190.053 4.22834C190.578 3.88388 191.186 3.71165 191.875 3.71165C192.407 3.71165 192.828 3.80043 193.137 3.97798C193.45 4.15199 193.688 4.35085 193.851 4.57457C194.018 4.79474 194.147 4.97585 194.24 5.1179H194.346V1.09091H195.603V12H194.389V10.7429H194.24C194.147 10.892 194.016 11.0803 193.846 11.3075C193.675 11.5312 193.432 11.7319 193.116 11.9094C192.8 12.0835 192.379 12.1705 191.853 12.1705ZM192.024 11.0412C192.528 11.0412 192.954 10.9098 193.302 10.647C193.65 10.3807 193.915 10.0131 194.096 9.54439C194.277 9.07209 194.368 8.52699 194.368 7.90909C194.368 7.2983 194.279 6.76385 194.101 6.30575C193.924 5.84411 193.661 5.48544 193.313 5.22976C192.965 4.97053 192.535 4.84091 192.024 4.84091C191.491 4.84091 191.047 4.97763 190.692 5.25107C190.341 5.52095 190.076 5.88849 189.898 6.35369C189.724 6.81534 189.637 7.33381 189.637 7.90909C189.637 8.49148 189.726 9.0206 189.904 9.49645C190.085 9.96875 190.351 10.3452 190.703 10.6257C191.058 10.9027 191.498 11.0412 192.024 11.0412ZM203.876 5.65057L202.746 5.97017C202.675 5.78196 202.571 5.59908 202.432 5.42152C202.297 5.24041 202.113 5.09126 201.878 4.97408C201.644 4.85689 201.344 4.7983 200.978 4.7983C200.477 4.7983 200.06 4.91371 199.726 5.14453C199.396 5.3718 199.231 5.66122 199.231 6.01278C199.231 6.32528 199.344 6.57209 199.572 6.7532C199.799 6.9343 200.154 7.08523 200.637 7.20597L201.852 7.50426C202.583 7.68182 203.128 7.95348 203.487 8.31925C203.846 8.68146 204.025 9.14844 204.025 9.72017C204.025 10.1889 203.89 10.608 203.62 10.9773C203.354 11.3466 202.981 11.6378 202.501 11.8509C202.022 12.0639 201.464 12.1705 200.829 12.1705C199.994 12.1705 199.304 11.9893 198.757 11.6271C198.21 11.2649 197.864 10.7358 197.718 10.0398L198.911 9.74148C199.025 10.1818 199.24 10.5121 199.556 10.7322C199.875 10.9524 200.293 11.0625 200.808 11.0625C201.393 11.0625 201.859 10.9382 202.203 10.6896C202.551 10.4375 202.725 10.1357 202.725 9.78409C202.725 9.5 202.626 9.26207 202.427 9.07031C202.228 8.875 201.923 8.7294 201.511 8.63352L200.147 8.31392C199.398 8.13636 198.847 7.86115 198.496 7.48828C198.148 7.11186 197.974 6.64134 197.974 6.0767C197.974 5.61506 198.103 5.20668 198.363 4.85156C198.625 4.49645 198.982 4.21768 199.433 4.01527C199.888 3.81286 200.403 3.71165 200.978 3.71165C201.788 3.71165 202.423 3.8892 202.885 4.24432C203.35 4.59943 203.68 5.06818 203.876 5.65057Z" fill="#637381"/>
</svg>
